<svg width="1580" height="1109" viewBox="0 0 1580 1109" fill="none" xmlns="http://www.w3.org/2000/svg">
<rect width="1580" height="1109" fill="#E5E5E5"/>
<g id="animation">
<rect width="1580" height="1109" fill="white"/>
<path id="sun" d="M1400.63 207.544C1447.31 207.544 1485.15 169.695 1485.15 123.007C1485.15 76.3185 1447.31 38.4702 1400.63 38.4702C1353.96 38.4702 1316.12 76.3185 1316.12 123.007C1316.12 169.695 1353.96 207.544 1400.63 207.544Z" fill="#FF6584"/>
<g id="trees">
<path id="Vector" d="M1083.89 345.717L1017.67 215.667L1084.09 329.478L1084.7 282.928L1039.19 188.918L1084.86 270.62L1085.95 186.906L1036.48 111.667L1086.11 173.741L1089.72 20.9245L1089.74 20.2899L1089.74 20.9352L1089.17 214.831L1143.79 136.341L1089.33 231.273L1091.49 324.863L1091.71 322.389L1154.69 239.585L1091.64 331.15L1091.91 342.855L1092.01 343.04L1091.94 343.996L1094.79 467.868C1090.67 468.041 1086.51 468.111 1082.3 468.079L1082.42 458.442L1024.97 363.588L1082.54 449.229L1083.89 345.717Z" fill="#3F3D56"/>
<path id="Vector_2" d="M775.373 420.022L709.156 289.972L775.575 403.783L776.178 357.233L730.674 263.223L776.346 344.925L777.429 261.211L727.959 185.972L777.592 248.046L781.207 95.2294L781.225 94.5948L781.227 95.2401L780.657 289.136L835.27 210.646L780.811 305.578L782.968 399.168L783.192 396.694L846.168 313.89L783.118 405.455L783.391 417.16L783.496 417.345L783.418 418.3L786.274 542.173C782.152 542.345 777.99 542.415 773.787 542.383L773.907 532.747L716.45 437.893L774.024 523.534L775.373 420.022Z" fill="#CBCBCB"/>
<path id="Vector_3" d="M1349.41 325.427L1283.19 195.377L1349.61 309.188L1350.21 262.638L1304.71 168.628L1350.38 250.331L1351.46 166.616L1301.99 91.377L1351.62 153.451L1355.24 0.634721L1355.26 4.57764e-05L1355.26 0.645393L1354.69 194.542L1409.3 116.051L1354.84 210.983L1357 304.574L1357.22 302.099L1420.2 219.295L1357.15 310.86L1357.42 322.565L1357.53 322.75L1357.45 323.706L1360.31 447.579C1356.19 447.751 1352.02 447.821 1347.82 447.789L1347.94 438.152L1290.48 343.299L1348.06 428.939L1349.41 325.427Z" fill="#3F3D56"/>
</g>
<path id="Vector_4" d="M209.496 772.32C248.067 743.88 288.517 718.081 330.568 695.098C448.177 630.184 592.808 574.678 757.235 531.679C768.534 528.715 779.927 525.818 791.415 522.986C815.812 516.947 840.613 511.196 865.82 505.734C872.047 504.39 878.29 503.052 884.55 501.72C919.63 494.343 955.409 487.532 991.887 481.287C992.62 481.153 993.352 481.037 994.101 480.92C1002.66 479.438 1011.27 478.006 1019.91 476.624C1192.56 448.563 1379.66 433.125 1575.14 432.892C1576.75 432.875 1578.39 432.875 1580 432.875V1109H0C0 986.415 76.2196 871.457 209.496 772.32Z" fill="#F1F1F1"/>
<path id="Vector_5" d="M840.746 927.395C987.858 817.967 1263.83 744.292 1580 744.292V1109H727.732C727.732 1042.89 768.856 980.869 840.746 927.395Z" fill="#F1F1F1"/>
<g id="human">
<path id="Vector_6" d="M523.432 849.441C590.76 799.365 676.97 754.517 777.913 716.698C789.118 712.484 800.506 708.371 812.077 704.358C813.692 703.791 815.323 703.225 816.955 702.659C831.689 697.596 846.707 692.667 862.007 687.871C887.863 679.788 914.452 672.15 941.773 664.956C961.33 659.788 981.232 654.864 1001.48 650.184C1007.98 648.663 1014.51 647.187 1021.07 645.754C1035.98 642.435 1051.07 639.26 1066.34 636.229C1222.43 605.121 1396.48 587.751 1580 587.751V1109H361.918C361.918 1014.49 420.69 925.863 523.432 849.441Z" fill="#6C63FF"/>
<path id="Vector_7" d="M491.498 1081.96L494.512 1083.39C504.742 1062.2 517.235 1042.18 531.772 1023.69L529.142 1021.64C514.461 1040.33 501.84 1060.55 491.498 1081.96ZM577.258 969.345L579.539 971.777C595.875 956.582 613.051 942.315 630.985 929.044C631.984 928.295 632.999 927.545 634.015 926.796L632.033 924.115C631.018 924.864 630.002 925.614 628.987 926.38C610.958 939.728 593.688 954.072 577.258 969.345ZM691.188 884.796L692.902 887.644C712.315 875.92 733.143 864.396 754.787 853.388L753.272 850.407C731.562 861.465 710.667 873.039 691.188 884.796ZM817.504 820.215L818.82 823.262C839.848 814.12 861.941 805.194 884.451 796.75L883.285 793.636C860.709 802.096 838.582 811.039 817.504 820.215ZM950.264 770.238L951.28 773.402C957.174 771.487 963.084 769.606 969.061 767.724C985.344 762.644 1002.16 757.648 1019.06 752.919L1018.16 749.705C1001.23 754.451 984.378 759.447 968.062 764.559C962.091 766.43 956.158 768.323 950.264 770.238H950.264ZM1107.65 726.84C1100.67 728.438 1093.65 730.104 1086.79 731.769L1087.57 735C1094.43 733.351 1101.44 731.686 1108.41 730.07C1115.02 728.538 1121.6 727.04 1127.98 725.657C1137.48 723.542 1147.14 721.461 1156.66 719.496L1156 716.232C1146.44 718.213 1136.78 720.278 1127.26 722.393C1120.88 723.792 1114.27 725.291 1107.65 726.84L1107.65 726.84ZM1225.66 702.942L1226.24 706.223C1249.17 702.209 1272.71 698.446 1296.18 695.049L1295.7 691.751C1272.19 695.165 1248.63 698.929 1225.66 702.942ZM1366.04 682.575L1366.43 685.889C1389.63 683.191 1413.34 680.76 1436.9 678.645L1436.6 675.331C1413.03 677.446 1389.28 679.877 1366.04 682.575H1366.04ZM1507.34 669.952L1507.54 673.283C1530.92 671.8 1554.73 670.601 1578.3 669.719L1578.19 666.388C1554.56 667.287 1530.74 668.486 1507.34 669.952H1507.34Z" fill="white"/>
<path id="Vector_8" opacity="0.2" d="M209.496 772.32L523.431 849.441L840.746 927.395L1580 1109H0C0 986.415 76.2196 871.457 209.496 772.32Z" fill="black"/>
<path id="Vector_9" d="M400.324 702.502L389.657 702.5L384.581 661.344H400.325L400.324 702.502Z" fill="#FFB7B7"/>
<path id="Vector_10" d="M403.045 712.845L368.647 712.844V712.409C368.647 708.857 370.058 705.451 372.569 702.939C375.08 700.428 378.485 699.017 382.036 699.017H382.036L403.045 699.018L403.045 712.845Z" fill="#2F2E41"/>
<path id="Vector_11" d="M494.567 694.641L484.263 697.408L468.692 658.973L483.9 654.891L494.567 694.641Z" fill="#FFB7B7"/>
<path id="Vector_12" d="M499.874 703.926L466.653 712.845L466.54 712.425C465.62 708.994 466.099 705.339 467.873 702.262C469.647 699.186 472.57 696.94 475.999 696.019L476 696.019L496.291 690.571L499.874 703.926Z" fill="#2F2E41"/>
<path id="Vector_13" d="M355.901 511.627C349.736 519.556 369.114 585.635 369.995 586.516C370.875 587.397 369.114 592.683 369.114 592.683C369.11 593.637 369.419 594.566 369.995 595.326C370.875 596.207 369.995 597.088 369.995 598.85C369.995 600.613 369.995 600.613 371.756 604.137C372.811 606.639 373.117 609.393 372.637 612.066L384.088 679.025C383.241 679.39 382.53 680.011 382.056 680.802C381.582 681.592 381.368 682.512 381.445 683.431C381.445 686.955 399.062 688.717 405.227 687.836C411.393 686.955 400.823 608.542 400.823 608.542C400.823 608.542 400.823 588.278 402.585 586.516C404.347 584.754 402.585 584.754 402.585 581.23C402.585 577.705 399.942 572.419 400.823 569.776C401.704 567.133 402.585 529.248 402.585 529.248C402.585 529.248 422.844 567.133 422.844 572.419C422.844 577.705 429.01 586.516 429.01 586.516L469.527 669.193C469.527 669.193 466.885 674.479 469.527 678.884C472.17 683.29 483.621 679.765 495.071 675.36C506.522 670.955 490.667 663.907 490.667 663.907L466.004 593.564C466.062 590.9 466.357 588.246 466.885 585.635C467.766 581.229 464.242 582.992 461.6 581.229C458.957 579.467 459.838 579.467 461.6 575.943C463.362 572.419 458.957 564.49 458.957 564.49L447.507 499.292C447.507 499.292 362.067 503.698 355.901 511.627Z" fill="#2F2E41"/>
<path id="Vector_14" d="M384.282 352.812C396.93 352.812 407.183 342.556 407.183 329.904C407.183 317.253 396.93 306.997 384.282 306.997C371.634 306.997 361.38 317.253 361.38 329.904C361.38 342.556 371.634 352.812 384.282 352.812Z" fill="#FFB8B8"/>
<path id="cddcd" d="M375.764 359.793C375.764 359.793 344.521 374.113 341.879 381.162C339.236 388.21 358.544 453.478 358.544 453.478C358.544 453.478 359.715 480.921 356.192 491.493C352.669 502.066 353.259 503.698 353.259 503.698V511.627C353.259 516.032 381.445 512.508 395.538 508.103C409.632 503.698 445.745 504.579 449.269 503.698C452.792 502.817 443.377 491.493 443.377 491.493C455.708 490.613 443.377 464.798 443.377 464.798C443.377 464.798 442.116 381.232 438.593 369.779C435.07 358.325 402.453 356.234 402.453 356.234L385.849 361.849L375.764 359.793Z" fill="#6C63FF"/>
<path id="Vector_15" d="M412.025 323.876C413.204 318.144 412.084 312.178 408.906 307.264C407.019 304.381 404.552 301.922 401.663 300.045C398.773 298.167 395.525 296.912 392.124 296.36C385.394 295.398 378.532 296.561 372.495 299.685C368.84 301.479 364.886 303.885 361.059 302.571L362.183 304.589L359.337 304.622L360.377 306.982L357.659 307.37L359.761 308.632C356.951 313.637 355.058 319.103 354.169 324.774C353.634 327.016 353.81 329.369 354.672 331.506C355.7 333.517 358.354 334.691 360.053 333.305C361.119 332.435 361.481 330.908 362.229 329.714C362.977 328.52 364.694 327.687 365.585 328.761L367.882 324.167L369.722 325.665C374.15 321.767 379.262 318.722 384.798 316.684C385.47 316.332 386.214 316.139 386.973 316.118C387.731 316.098 388.484 316.25 389.175 316.565C391.228 317.88 390.93 321.246 392.352 323.314C394.664 326.675 400.358 325.279 402.548 328.735C403.191 330.108 403.626 331.569 403.838 333.071C404.229 334.538 405.173 336.08 406.587 336.175C409.57 333.098 410.71 328.83 412.025 323.876Z" fill="#2F2E41"/>
<path id="Vector_16" d="M467.301 505.785C466.131 504.993 465.15 503.954 464.425 502.741C463.7 501.528 463.25 500.172 463.106 498.766C462.962 497.361 463.128 495.941 463.592 494.606C464.057 493.272 464.808 492.056 465.793 491.043L450.392 460.349L468.11 462.447L480.018 491.273C481.609 493.041 482.497 495.331 482.513 497.71C482.528 500.089 481.671 502.39 480.104 504.179C478.536 505.968 476.367 507.119 474.007 507.415C471.648 507.711 469.262 507.131 467.301 505.785L467.301 505.785Z" fill="#FFB8B8"/>
<path id="Vector_17" d="M454.614 483.754L436.661 425.623L416.17 381.181C415.305 379.305 414.878 377.257 414.92 375.192C414.963 373.126 415.474 371.097 416.415 369.258C417.356 367.419 418.702 365.818 420.353 364.576C422.003 363.333 423.914 362.483 425.941 362.087C429.155 361.476 432.481 362.035 435.318 363.663C438.156 365.291 440.318 367.88 441.414 370.963L478.781 477.644C478.984 478.224 479.061 478.84 479.008 479.452C478.954 480.063 478.771 480.657 478.47 481.192C478.169 481.728 477.758 482.193 477.264 482.557C476.769 482.921 476.203 483.175 475.602 483.303L459.647 486.707C459.345 486.771 459.036 486.804 458.727 486.804C457.805 486.804 456.908 486.508 456.167 485.958C455.427 485.409 454.882 484.636 454.614 483.754Z" fill="#6C63FF"/>
<path id="Vector_18" d="M343.682 525.86C344.65 524.831 345.382 523.603 345.825 522.262C346.268 520.92 346.411 519.498 346.245 518.095C346.079 516.692 345.607 515.342 344.863 514.141C344.119 512.94 343.121 511.917 341.939 511.144L350.273 477.828L333.44 483.743L328.106 514.473C326.939 516.545 326.572 518.974 327.076 521.299C327.579 523.623 328.918 525.683 330.837 527.086C332.757 528.49 335.125 529.14 337.493 528.914C339.86 528.688 342.062 527.601 343.682 525.86V525.86Z" fill="#FFB8B8"/>
<path id="Vector_19" d="M347.909 505.465C347.607 505.533 347.299 505.568 346.99 505.571L330.677 505.731C330.063 505.737 329.455 505.613 328.893 505.365C328.331 505.118 327.828 504.754 327.418 504.297C327.008 503.84 326.699 503.301 326.514 502.715C326.328 502.13 326.269 501.512 326.341 500.902L339.541 388.636C339.938 385.388 341.483 382.39 343.897 380.182C346.311 377.974 349.435 376.703 352.705 376.598C354.769 376.541 356.82 376.955 358.701 377.807C360.583 378.659 362.246 379.928 363.566 381.517C364.885 383.107 365.826 384.975 366.318 386.982C366.81 388.988 366.84 391.08 366.405 393.1L356.1 440.943L351.258 501.591C351.189 502.511 350.826 503.384 350.223 504.081C349.62 504.779 348.809 505.264 347.909 505.465Z" fill="#6C63FF"/>
</g>
</g>
</svg>
